<?xml version="1.0" encoding="UTF-8"?>
<svg version="1.1" xmlns="http://www.w3.org/2000/svg" width="1254" height="1254">
<path d="M0 0 C413.82 0 827.64 0 1254 0 C1254 413.82 1254 827.64 1254 1254 C840.18 1254 426.36 1254 0 1254 C0 840.18 0 426.36 0 0 Z " fill="#000000" transform="translate(0,0)"/>
<path d="M0 0 C5.76389407 4.41063199 9.76688773 10.9100382 12.046875 17.75 C12.79539249 28.94897327 12.01300071 37.9867457 4.84765625 46.89453125 C-2.07360338 54.02598098 -9.63130765 56.79818184 -19.453125 57 C-29.05041211 56.79183966 -35.02758873 54.39851482 -41.953125 47.75 C-49.23586729 38.8247669 -50.93523526 29.93817 -50.19140625 18.66650391 C-49.21470249 10.81084352 -43.94453299 4.55334628 -37.953125 -0.25 C-26.57216369 -8.07590211 -11.43648189 -7.31934841 0 0 Z " fill="#FBFAFB" transform="translate(434.953125,387.25)"/>
<path d="M0 0 C7.74455118 4.70721447 13.80621886 11.10449817 16.375 19.9375 C18.05211252 30.56281931 16.81547164 40.0664026 10.375 48.9375 C7.94779231 51.73616715 5.45485468 53.88616822 2.375 55.9375 C1.73175781 56.36933594 1.08851563 56.80117188 0.42578125 57.24609375 C-7.17048505 61.42765749 -17.38350856 61.43211714 -25.59765625 59.08984375 C-33.8312411 55.33573628 -39.78197155 49.40970746 -43.625 41.25 C-46.56050039 33.36892777 -47.2321727 25.11168174 -44.0625 17.1875 C-35.59622237 1.08381108 -17.72397338 -8.35519611 0 0 Z " fill="#FAFAFB" transform="translate(852.625,384.0625)"/>
<path d="M0 0 C5.28670296 3.03416958 9.11965574 6.43419161 12.5 11.5 C12.93183594 12.13164062 13.36367188 12.76328125 13.80859375 13.4140625 C18.22466497 21.32937354 17.69579141 31.93143289 15.83984375 40.57421875 C13.08865078 48.3514006 7.9509867 53.31462933 0.9375 57.4375 C-6.97726519 61.10531802 -17.07089984 60.61971566 -25.4140625 58.37109375 C-33.70937006 54.90694846 -38.75012552 48.45465177 -42.5 40.5 C-45.55469137 32.75305076 -46.10752292 23.44801794 -42.9375 15.625 C-34.34339216 -0.40345718 -17.16062147 -7.80808277 0 0 Z " fill="#FAFAFA" transform="translate(791.5,448.5)"/>
<path d="M0 0 C6.78509453 4.5312223 12.40356795 11.21070385 15 19 C16.18035065 30.22080179 14.0400638 38.02342313 7.46484375 47.125 C2.34502031 52.96185031 -5.08111262 56.32055656 -12.71484375 57.375 C-15.20071012 57.43628484 -17.53360975 57.30568164 -20 57 C-20.68707031 56.91621094 -21.37414062 56.83242188 -22.08203125 56.74609375 C-29.72179958 55.31457897 -35.9615702 50.95018776 -40.375 44.625 C-45.24603048 36.49308522 -47.12736416 29.58892886 -46 20 C-43.80373217 12.09591746 -38.89439127 4.62477445 -32 0.125 C-21.44929969 -5.77623916 -10.74099088 -5.51740869 0 0 Z " fill="#F9F9F9" transform="translate(492,450)"/>
<path d="M0 0 C6.79365445 4.81515158 12.36701373 10.98656353 15 19 C16.20761029 29.05567797 15.0866998 36.69071054 9 45 C5.35951373 49.40690443 0.92846457 52.20753001 -4 55 C-4.60199219 55.37125 -5.20398438 55.7425 -5.82421875 56.125 C-11.69215284 58.4848155 -20.23689321 57.88614714 -26.25 56.0625 C-33.90604905 52.53907097 -40.84508767 45.71122818 -44.21875 38 C-46.3680011 29.74687577 -46.54532932 20.21393811 -42.9375 12.375 C-38.18366487 4.52315996 -31.91919686 -0.90028446 -23.08203125 -3.58203125 C-14.84481879 -5.23565551 -7.29576208 -4.12053008 0 0 Z " fill="#F9F9F9" transform="translate(915,450)"/>
<path d="M0 0 C5.67753374 2.95263166 10.01972056 6.59164659 13.57421875 11.90625 C13.98542969 12.45410156 14.39664063 13.00195312 14.8203125 13.56640625 C19.032715 20.19838942 18.32164713 28.38620523 17.57421875 35.90625 C15.15169684 45.62355699 7.80937897 52.67367485 -0.42578125 57.90625 C-7.48549365 60.25948747 -16.71142082 60.11698448 -23.78125 57.8125 C-29.56019688 54.81541859 -33.68653245 51.18451889 -37.42578125 45.90625 C-37.91046875 45.38160156 -38.39515625 44.85695313 -38.89453125 44.31640625 C-44.03199342 38.0230151 -43.37757775 29.64600131 -42.72119141 21.94384766 C-42.07860508 17.51159519 -40.18931852 14.3357921 -37.42578125 10.90625 C-36.68328125 9.83375 -35.94078125 8.76125 -35.17578125 7.65625 C-31.66356482 4.14403357 -27.85037937 2.08812452 -23.42578125 -0.09375 C-17.2767802 -3.16825053 -6.40094371 -2.04363083 0 0 Z " fill="#F8F8F9" transform="translate(368.42578125,448.09375)"/>
<path d="M0 0 C1.28390625 -0.01417969 2.5678125 -0.02835938 3.890625 -0.04296875 C7.89828876 0.1963553 10.960452 0.94558854 14.75 2.1875 C14.75 2.8475 14.75 3.5075 14.75 4.1875 C15.430625 4.3525 16.11125 4.5175 16.8125 4.6875 C23.67136846 8.18990092 27.60401586 14.65047371 30.0859375 21.76171875 C32.44842222 30.39173647 29.47848313 37.33105341 25.75 45.1875 C21.97287671 51.39106641 15.8578669 55.3268856 9.0703125 57.63671875 C0.25488762 59.7292691 -6.75595587 58.32365975 -14.61328125 53.96875 C-18.26081145 51.50464071 -20.81718916 48.832418 -23.25 45.1875 C-24.11625 43.9190625 -24.11625 43.9190625 -25 42.625 C-28.43119302 35.9341736 -29.1776831 29.63707637 -28.25 22.1875 C-24.86108131 12.42579397 -19.06103559 6.31510082 -10.25 1.1875 C-6.68450163 -0.00099946 -3.75898083 0.01872002 0 0 Z " fill="#F8F8F8" transform="translate(539.25,524.8125)"/>
<path d="M0 0 C7.70403962 -0.37580681 12.63855527 0.74406371 18.86328125 5.2734375 C19.91515625 5.9540625 20.96703125 6.6346875 22.05078125 7.3359375 C27.15199092 11.90845037 30.3297272 18.75545103 31.34375 25.44140625 C31.59812885 34.99878294 28.93839966 42.7116639 22.4375 49.8359375 C16.67812116 55.33415119 9.20508851 58.39059385 1.23828125 58.7109375 C-9.22397212 58.11416012 -15.60674039 53.29314325 -22.44921875 45.7109375 C-27.8267541 37.94338644 -28.29076049 30.40064612 -27.13671875 21.2734375 C-24.96060193 12.9756183 -19.07877739 7.04414547 -12.13671875 2.2734375 C-8.15323677 0.44856251 -4.31431973 0.37609263 0 0 Z " fill="#F9F9F9" transform="translate(712.13671875,524.7265625)"/>
<path d="M0 0 C8.7458298 4.49472312 14.40506545 10.69419269 17.7421875 19.94140625 C18.88276121 28.61507147 18.82037699 36.51790451 13.57421875 43.828125 C7.61866177 50.69796791 1.0786175 56.11970343 -8.1796875 57.3203125 C-17.67935557 57.69403041 -24.72262167 54.99716788 -31.69140625 48.578125 C-38.47406064 41.4910123 -40.7729259 34.79665588 -40.56640625 24.96875 C-39.7296897 16.76045468 -35.21339253 10.44163006 -29.2578125 4.94140625 C-20.41750219 -1.50098987 -10.60442373 -3.44580196 0 0 Z " fill="#F9F8F9" transform="translate(551.2578125,678.05859375)"/>
<path d="M0 0 C1.4540625 0.86625 1.4540625 0.86625 2.9375 1.75 C3.948125 2.3275 4.95875 2.905 6 3.5 C11.6006991 7.78989718 17.08152675 13.55270599 18.27075195 20.7734375 C18.91214299 28.98030646 19.36603455 37.25395164 13.83984375 43.859375 C13.21207031 44.48328125 12.58429688 45.1071875 11.9375 45.75 C11.23753906 46.47703125 10.53757812 47.2040625 9.81640625 47.953125 C3.42063192 54.11612418 -1.96497041 56.77175372 -10.8125 57.3125 C-19.52339395 57.05921231 -27.06934057 53.28706704 -33.0625 47 C-37.84466125 40.86152896 -40.83709316 33.89135317 -40.3671875 26.02734375 C-38.93171761 15.29812647 -34.24066375 8.95697513 -26 2.01171875 C-18.81101084 -2.82178722 -7.99741517 -3.20609071 0 0 Z " fill="#F9F8F9" transform="translate(304.0625,526.25)"/>
<path d="M0 0 C1.50277034 0.89917829 2.98544864 1.83352752 4.4375 2.8125 C5.51 3.493125 6.5825 4.17375 7.6875 4.875 C13.65446986 10.34756379 16.78630565 18.36503099 17.1875 26.3125 C16.72361957 35.10514264 13.06765048 42.69024077 6.75 48.8125 C0.13591689 53.9651857 -7.77193985 56.60266197 -16.15625 56.19140625 C-23.97085493 54.96085969 -30.34721314 50.64135002 -35.5625 44.8125 C-40.9958501 36.70966276 -42.67497448 29.56804544 -41.5625 19.8125 C-39.0549838 12.21830808 -35.30467106 6.18188983 -28.5625 1.8125 C-28.00304687 1.40257812 -27.44359375 0.99265625 -26.8671875 0.5703125 C-19.10429394 -4.30249947 -8.07496193 -3.86034489 0 0 Z " fill="#F8F8F8" transform="translate(974.5625,527.1875)"/>
<path d="M0 0 C7.15737874 5.04465851 11.33713465 11.36919561 13.59375 19.828125 C14.64425577 27.08858261 13.13865339 34.01647385 8.90625 39.953125 C2.67523721 47.61051421 -4.16538132 52.7213065 -14.140625 54.24609375 C-21.30234225 54.62036428 -26.41616157 52.63520585 -32.40625 48.828125 C-32.9940625 48.45558594 -33.581875 48.08304688 -34.1875 47.69921875 C-40.23786298 43.26948871 -44.60689146 34.6934515 -45.8125 27.35546875 C-46.15872825 17.79091326 -42.53005671 9.81994464 -36.03125 2.828125 C-34.85686644 1.7884651 -33.64875553 0.7853342 -32.40625 -0.171875 C-31.84679687 -0.60371094 -31.28734375 -1.03554688 -30.7109375 -1.48046875 C-21.35966729 -7.33007284 -9.06744111 -5.21621612 0 0 Z " fill="#F9F9F9" transform="translate(729.40625,681.171875)"/>
<path d="M0 0 C2.69141724 1.90381258 4.88026872 3.91359739 7.015625 6.42578125 C7.716875 7.18890625 8.418125 7.95203125 9.140625 8.73828125 C14.25163355 16.06406017 15.26484649 23.6605825 14.015625 32.42578125 C11.06885163 40.81275162 5.78066417 46.99625901 -1.81640625 51.515625 C-9.07150177 54.83005811 -18.23628459 54.46925886 -25.796875 52.36328125 C-34.24252539 48.99120838 -39.20723939 42.81798664 -42.90625 34.66796875 C-45.56753966 26.66481506 -44.95086323 19.68848335 -41.484375 12.05078125 C-37.80255531 5.49281065 -32.48649297 -0.48242 -25.21875 -3.1328125 C-16.38159085 -4.87861492 -7.8425347 -4.60943678 0 0 Z " fill="#F9F9F9" transform="translate(491.984375,680.57421875)"/>
<path d="M0 0 C7.73363445 3.5953558 14.01656347 9.15697876 17.56640625 16.9765625 C20.38367504 25.18940411 19.98403004 32.9262917 16.37890625 40.8125 C12.47371605 47.80929911 7.69624153 52.27120167 0.23828125 55.3203125 C-6.67538497 57.15941583 -15.03777303 57.58782793 -21.87109375 55.1015625 C-29.4409142 50.31249242 -34.08822941 45.26738392 -37.93359375 37.1640625 C-38.26359375 36.5040625 -38.59359375 35.8440625 -38.93359375 35.1640625 C-39.83695502 24.97533208 -38.58009458 16.5557697 -32.24609375 8.3515625 C-28.76391536 4.58439764 -24.50671363 2.37745252 -19.93359375 0.1640625 C-14.56714194 -2.51916341 -5.64041006 -1.607254 0 0 Z " fill="#F9F9F9" transform="translate(971.93359375,677.8359375)"/>
<path d="M0 0 C6.32403167 4.56485025 10.79573679 10.39407012 12.73828125 17.9765625 C13.0390625 21.6328125 13.0390625 21.6328125 13.05078125 25.4765625 C13.06753906 26.745 13.08429688 28.0134375 13.1015625 29.3203125 C12.27989572 37.58999109 6.76855337 43.63901678 0.73828125 48.9765625 C-6.34573023 53.30407428 -14.00820421 55.5881274 -22.26171875 53.9765625 C-29.83738066 51.30390662 -35.84984373 47.75507246 -40.26171875 40.9765625 C-40.67164063 40.4403125 -41.0815625 39.9040625 -41.50390625 39.3515625 C-45.82439064 32.67715902 -45.29653176 23.61023911 -44.26171875 15.9765625 C-41.95831807 7.98110436 -35.29493233 2.05643446 -28.359375 -2.1875 C-19.02576726 -6.41031619 -8.68373566 -4.85369066 0 0 Z " fill="#F9F8F9" transform="translate(309.26171875,681.0234375)"/>
<path d="M0 0 C8.22868698 4.86613383 13.56006405 11.30938552 16.25 20.5 C17.17290572 29.49833074 15.74684754 37.17651844 10.5625 44.6875 C5.46192421 50.70767645 -1.03553505 54.36526489 -8.8828125 55.37109375 C-12.14280332 55.43538591 -15.25923045 55.28244393 -18.5 54.9375 C-19.26441406 54.86402344 -20.02882813 54.79054688 -20.81640625 54.71484375 C-27.81607642 53.52311908 -32.09273335 48.40982791 -36.8125 43.5625 C-41.89328623 35.65905476 -42.35541094 27.51212999 -40.9375 18.4375 C-38.81365224 9.98635577 -32.64892782 4.52074128 -25.515625 0.03125 C-18.28173409 -3.89411716 -7.34301152 -3.45087598 0 0 Z " fill="#FAFAFA" transform="translate(368.5,679.0625)"/>
<path d="M0 0 C6.62170229 3.90680435 12.86960064 10.12988961 15.15625 17.63671875 C16.58233137 26.15207002 17.04898521 34.73399529 12.12109375 42.1328125 C7.34571695 48.04518377 2.2955881 53.54278008 -5.4375 55.0625 C-14.69416286 55.58900331 -23.23584342 56.03422478 -30.625 49.8125 C-31.91551723 48.58283231 -33.1877899 47.33361841 -34.4375 46.0625 C-34.94667969 45.56363281 -35.45585938 45.06476562 -35.98046875 44.55078125 C-41.86447199 38.25265461 -41.90643149 30.35300588 -41.74609375 22.17578125 C-41.30222527 17.69776631 -40.04015843 14.69232037 -37.4375 11.0625 C-36.95152344 10.37414062 -36.46554687 9.68578125 -35.96484375 8.9765625 C-27.22735343 -2.13636845 -13.19868533 -5.83670676 0 0 Z " fill="#FAF9FA" transform="translate(790.4375,678.9375)"/>
<path d="M0 0 C0.61359375 0.46921875 1.2271875 0.9384375 1.859375 1.421875 C2.43171875 1.82921875 3.0040625 2.2365625 3.59375 2.65625 C8.92475289 6.72047993 12.40912801 11.89576356 13.859375 18.421875 C14.57730272 27.22593593 14.2734013 34.94096548 8.796875 42.12890625 C2.09965671 49.82850426 2.09965671 49.82850426 -2.140625 51.421875 C-3.130625 51.421875 -4.120625 51.421875 -5.140625 51.421875 C-5.140625 52.081875 -5.140625 52.741875 -5.140625 53.421875 C-26.28381384 53.91741849 -26.28381384 53.91741849 -34.38671875 46.2109375 C-40.85769953 39.61024887 -43.28191741 33.72381085 -43.640625 24.546875 C-43.42673886 16.53897773 -41.46446697 11.0563564 -36.05078125 5.13671875 C-26.15244015 -4.18633415 -12.19260885 -8.15896381 0 0 Z " fill="#F9F9FA" transform="translate(914.140625,680.578125)"/>
<path d="M0 0 C8.23767601 5.14209839 12.81693491 11.00549224 15.87109375 20.16796875 C16.70435012 29.32188513 16.18342151 36.50595755 10.87109375 44.16796875 C6.32677536 49.52793403 0.79271863 53.62982989 -6.12890625 55.16796875 C-15.135967 55.77861694 -23.16116012 55.92318714 -30.31640625 49.98046875 C-37.74958243 42.91237981 -41.00541135 36.5683958 -41.50390625 26.29296875 C-41.28635306 17.94916394 -37.89904356 10.91530531 -32.15625 4.9296875 C-23.43435031 -2.64945848 -10.75900572 -4.92831875 0 0 Z " fill="#FAFAFA" transform="translate(851.12890625,678.83203125)"/>
<path d="M0 0 C1.48133678 0.8790081 2.94393263 1.7913238 4.375 2.75 C5.303125 3.348125 6.23125 3.94625 7.1875 4.5625 C13.28322375 10.65822375 16.29172962 17.84478876 16.8125 26.4375 C16.62070958 34.30090735 13.45955947 41.9157541 8.1875 47.75 C1.46416007 53.67639231 -5.93250522 55.36816879 -14.73828125 54.99609375 C-23.42102767 54.25588668 -28.77025659 52.53757465 -34.625 45.75 C-40.90202266 37.59923923 -41.87768426 29.83740485 -40.625 19.75 C-38.72175214 11.03265485 -33.72541738 5.73575663 -26.85546875 0.3671875 C-19.12845879 -4.44746359 -7.96715243 -3.85238059 0 0 Z " fill="#FAFAFA" transform="translate(428.625,679.25)"/>
<path d="M0 0 C7.23091042 4.48815129 12.28799649 9.86398948 15 18 C15.81340161 29.43454953 14.33990273 37.01800921 7.10546875 45.94921875 C0.28416696 52.59334387 -8.37653501 54.4319229 -17.57421875 54.33984375 C-26.22477571 53.48169272 -32.57904638 48.5263436 -38 42 C-42.31696801 36.19442234 -43.61406309 29.12313182 -43 22 C-41.65508915 13.36040966 -37.51109262 7.71237163 -31 2 C-21.78613316 -4.6996254 -10.12890426 -5.16519169 0 0 Z " fill="#F9F8F9" transform="translate(307,607)"/>
<path d="M0 0 C6.30106076 5.24744076 9.94965289 9.70671509 10.8515625 17.9453125 C11.37874223 27.65651809 9.97029632 35.04133255 3.4609375 42.51171875 C-3.34533507 49.18524486 -10.1800206 51.25423841 -19.5546875 51.734375 C-26.75460154 51.5125548 -32.23775638 49.22024966 -37.58984375 44.40234375 C-39.41859519 42.43381513 -41.00188702 40.42559477 -42.5546875 38.234375 C-42.98910156 37.65171875 -43.42351563 37.0690625 -43.87109375 36.46875 C-47.86746986 30.0634085 -47.4151541 22.4945619 -46.5546875 15.234375 C-44.35295706 7.34836933 -39.23050422 1.79053796 -32.5546875 -2.765625 C-21.93979918 -8.28685413 -9.6977912 -6.70244897 0 0 Z " fill="#F9F9F9" transform="translate(558.5546875,609.765625)"/>
<path d="M0 0 C5.65721513 4.56486668 9.04991814 11.24743665 10.22265625 18.37109375 C10.49010772 26.56906286 8.84559827 34.31621585 3.6875 40.8125 C-2.43086641 47.24329363 -10.58962541 50.5691733 -19.375 50.8125 C-27.48084432 50.69377259 -33.66009826 48.33637388 -39.625 42.8125 C-46.60013158 35.08902434 -48.17964227 27.56647155 -47.6875 17.3125 C-46.70270354 8.73070225 -42.1452171 3.56450245 -35.63671875 -1.8359375 C-24.11500141 -9.86908249 -11.18114482 -7.18484211 0 0 Z " fill="#F9F9FA" transform="translate(732.25,610.5)"/>
<path d="M0 0 C5.77988545 3.89301853 9.30234782 9.01233277 11.37890625 15.66796875 C13.21288749 25.27803045 11.12581534 33.24534375 6.08203125 41.46484375 C-1.26773726 48.61596987 -8.50942057 51.59932987 -18.60546875 52.15234375 C-26.36592687 51.98036684 -32.40381058 48.64670492 -38.10546875 43.52734375 C-44.59248628 36.38088945 -45.92701679 28.49806294 -45.609375 19.05078125 C-44.64700558 10.57796179 -40.68589949 5.08705028 -34.23046875 -0.28515625 C-23.3062017 -8.20524986 -11.01445687 -6.34633329 0 0 Z " fill="#FAF9FA" transform="translate(979.23046875,609.28515625)"/>
<path d="M0 0 C3.9766396 1.75700537 6.87259365 4.01075217 10 7 C10.94875 7.804375 11.8975 8.60875 12.875 9.4375 C18.43599599 16.14340693 20.76429435 23.36074424 20 32 C17.86996879 41.53815448 12.84767956 48.28735091 5 54 C-1.70308052 57.9659893 -9.80649069 58.05810037 -17.30078125 56.53125 C-26.018479 53.6874185 -31.76957581 46.88916943 -36 39 C-36.875 36 -36.875 36 -37 33 C-37.03738281 32.31164062 -37.07476562 31.62328125 -37.11328125 30.9140625 C-37.41950848 21.46936997 -35.37528893 15.07353486 -29 8 C-20.82762985 -0.13024453 -11.09065242 -1.96173944 0 0 Z " fill="#F9F9F9" transform="translate(365,525)"/>
<path d="M0 0 C0 0.66 0 1.32 0 2 C1.2065625 2.0309375 1.2065625 2.0309375 2.4375 2.0625 C8.79983767 3.73679939 13.4434518 8.00442539 17.4375 13.125 C21.66129087 20.8967752 22.4986163 28.9516923 20.34765625 37.6328125 C17.23432885 45.30255467 12.1877111 51.2167505 4.8125 55 C-2.36418609 57.91799325 -9.82544659 58.24768394 -17.25 55.9375 C-25.27158431 52.30948054 -30.29270073 46.30057437 -33.9296875 38.390625 C-36.22733286 31.11195285 -36.58804072 22.59903498 -33.4375 15.5 C-25.26490864 2.32669715 -14.79868426 -0.87739235 0 0 Z " fill="#F9F9F9" transform="translate(785,525)"/>
<path d="M0 0 C6.60945298 4.18992109 12.15675548 9.63125332 14.56640625 17.234375 C16.26211054 26.09481184 15.36280677 33.89532206 10.74609375 41.58984375 C6.20624985 48.23261261 -0.06271178 52.78803587 -8 54.5 C-17.66355648 55.33383538 -24.25074814 54.02930651 -31.75 47.8125 C-37.08603892 42.82606363 -40.598909 36.90627111 -41.2734375 29.49609375 C-41.56824757 19.16640245 -39.74094963 12.27702219 -32.6875 4.625 C-23.46229176 -3.69539037 -11.44896091 -5.7797513 0 0 Z " fill="#F9F8F9" transform="translate(490,527.5)"/>
<path d="M0 0 C7.26186675 4.42568703 13.60719975 9.9614519 16.203125 18.29296875 C18.08833135 27.87610103 16.4134599 36.12758169 11.4453125 44.40234375 C6.72530347 50.78413111 -0.70870012 54.53920713 -8.3984375 56.01953125 C-16.39833832 56.47096922 -22.86788007 54.01693267 -29.375 49.4375 C-36.05572668 43.00552378 -39.38796582 35.87427799 -39.9375 26.6875 C-39.72233591 18.96115311 -36.73190115 12.33432231 -31.69921875 6.4921875 C-30.00464147 4.94174668 -28.30212614 3.68373575 -26.375 2.4375 C-25.80394531 2.02757812 -25.23289062 1.61765625 -24.64453125 1.1953125 C-17.64897478 -3.13029811 -7.45152977 -3.40178533 0 0 Z " fill="#F8F8F8" transform="translate(910.375,526.5625)"/>
<path d="M0 0 C6.07613687 4.3075783 12.22229004 9.50378247 14 17 C15.2783897 27.36364469 13.67433501 34.69875359 7.49609375 43.02734375 C2.34234852 48.90137144 -4.15431911 51.20278498 -11.73046875 52.44921875 C-19.46819069 52.95166823 -25.68416366 50.3675301 -32 46 C-34.43883811 43.53715758 -36.2574079 40.98483598 -38 38 C-38.53625 37.25492188 -39.0725 36.50984375 -39.625 35.7421875 C-41.39467363 32.2128952 -41.49348972 29.0512424 -41.4375 25.1875 C-41.43137695 24.47553467 -41.42525391 23.76356934 -41.41894531 23.0300293 C-41.25221249 17.43101284 -40.28633673 13.49285896 -37 9 C-36.46375 8.13375 -35.9275 7.2675 -35.375 6.375 C-25.67096976 -3.32903024 -12.46950425 -6.09963366 0 0 Z " fill="#FAF9FA" transform="translate(553,820)"/>
<path d="M0 0 C6.47373889 3.27563435 11.48583776 8.17173017 14.76171875 14.66796875 C16.9664823 21.56674501 16.71738646 29.43553391 14.109375 36.1953125 C10.15629352 43.61770675 4.27884281 48.95554938 -3.68359375 51.6953125 C-12.25140668 53.67345113 -19.86550673 52.91317793 -27.390625 48.3203125 C-33.73966919 44.0734127 -37.3326508 38.61116982 -39.390625 31.3203125 C-40.2023502 23.1841832 -40.16423015 16.14690169 -35.390625 9.3203125 C-34.854375 8.4540625 -34.318125 7.5878125 -33.765625 6.6953125 C-24.02204264 -3.04826986 -12.60013614 -5.0898855 0 0 Z " fill="#F9F9F9" transform="translate(304.390625,819.6796875)"/>
<path d="M0 0 C4.79549769 3.72730626 8.3413407 9.14902211 10.25 14.875 C11.19259819 29.30400302 11.19259819 29.30400302 7.25 35.875 C6.85941406 36.54015625 6.46882812 37.2053125 6.06640625 37.890625 C1.93854798 44.20519572 -3.61411217 47.32228973 -10.765625 49.484375 C-18.64672847 51.03577332 -25.80537332 49.90333737 -32.75 45.875 C-38.58164917 41.42082658 -43.01604341 36.09084418 -44.75 28.875 C-45.67203043 21.30556923 -45.73172293 14.42006635 -41.4296875 7.90625 C-30.38933076 -5.44487908 -15.33713322 -9.76306498 0 0 Z " fill="#F9F9F9" transform="translate(978.75,822.125)"/>
<path d="M0 0 C6.1673157 5.88964035 8.49981674 12.36778775 8.9375 20.8125 C8.6559352 28.5555321 6.33182629 33.63970591 1.1875 39.375 C-1.32465269 41.68673977 -3.87578142 43.63718921 -6.8125 45.375 C-7.38355469 45.74496094 -7.95460938 46.11492188 -8.54296875 46.49609375 C-15.04699999 49.01486661 -24.45930152 48.57552785 -30.9765625 46.2421875 C-38.85192689 41.69779295 -44.33594684 35.20101392 -46.8125 26.375 C-47.98421365 17.71733806 -47.02986204 10.50664596 -41.8125 3.375 C-30.30888517 -8.88033619 -13.54269666 -10.31824508 0 0 Z " fill="#F9F9F9" transform="translate(311.8125,756.625)"/>
<path d="M0 0 C5.04411849 3.82657265 8.14225335 8.72264421 10 14.75 C10.90811334 22.03220409 10.66285956 28.33999577 7 34.75 C6.443125 35.760625 5.88625 36.77125 5.3125 37.8125 C1.29596824 42.91458089 -3.76768903 46.7856613 -10 48.75 C-18.66944128 49.71844457 -26.5217161 49.90820251 -33.87890625 44.66015625 C-40.13432693 39.02682161 -44.34514321 33.18186472 -45.37109375 24.671875 C-45.55680035 15.80165369 -44.13924738 9.41878862 -38.16796875 2.68359375 C-27.13618225 -7.73894221 -12.68306916 -7.92691823 0 0 Z " fill="#F9F9F9" transform="translate(557,755.25)"/>
<path d="M0 0 C5.58549357 3.34042036 10.35053718 8.08612068 12.30859375 14.4296875 C13.87379061 23.83972648 13.8255674 32.60724487 8.47265625 40.69921875 C3.49023985 47.24927348 -3.32747273 50.70578246 -11.42578125 52.05078125 C-19.25685129 52.31703763 -26.25475669 50.46599694 -32.33203125 45.53125 C-39.41799525 38.47505895 -41.53160181 31.63186834 -41.57641602 21.87548828 C-41.427688 14.74779848 -39.41604712 10.22439198 -34.6171875 4.94921875 C-24.45434332 -4.6450747 -12.50814103 -5.7579739 0 0 Z " fill="#FAFAFA" transform="translate(726.19140625,820.3203125)"/>
<path d="M0 0 C5.67839862 5.41351705 9.01400922 13.3186686 9.4375 21.0625 C8.947105 29.57754049 4.89160565 36.30892616 -1.3125 42 C-6.85872638 46.62185532 -11.97168615 48.54588656 -19.1875 48.4375 C-19.89640381 48.42920166 -20.60530762 48.42090332 -21.33569336 48.41235352 C-29.12409695 48.16047857 -33.40792558 45.9099151 -39.0625 40.8125 C-45.36650002 33.94590043 -46.99079314 27.10192575 -46.92163086 17.88525391 C-46.49831101 9.2413687 -42.34682979 4.74869538 -36.3125 -0.9375 C-25.40998338 -9.79067139 -11.26247538 -6.79998513 0 0 Z " fill="#F9F9F9" transform="translate(731.3125,756)"/>
<path d="M0 0 C5.30100189 4.01109143 9.88998369 9.11034193 11.34375 15.7734375 C12.31022608 26.37782777 10.50878193 33.5911751 3.953125 41.98046875 C-0.33232691 46.75479503 -5.75822054 49.4587943 -12.07421875 50.14453125 C-20.21162063 50.28788444 -27.01995833 50.01015975 -33.65625 44.7734375 C-40.02808148 38.3156454 -43.90728442 32.22116653 -44.03125 22.9609375 C-43.87100816 14.33992676 -40.75982566 7.87701316 -34.65625 1.7734375 C-24.11095026 -5.99345991 -11.37339691 -7.12509865 0 0 Z " fill="#F9F8F9" transform="translate(977.65625,754.2265625)"/>
<path d="M0 0 C-0.33 5.61 -0.66 11.22 -1 17 C-1.99 17.33 -2.98 17.66 -4 18 C-4.78998471 14.24757263 -5.13913605 10.57480626 -5.25 6.75 C-5.27578125 5.89921875 -5.3015625 5.0484375 -5.328125 4.171875 C-5.16570312 3.09679687 -5.16570312 3.09679687 -5 2 C-2 0 -2 0 0 0 Z " fill="#0C0C0C" transform="translate(389,697)"/>
<path d="M0 0 C0.66 0 1.32 0 2 0 C2.89109922 3.07251011 3.16339724 5.86647393 3.1875 9.0625 C3.20167969 9.91972656 3.21585938 10.77695312 3.23046875 11.66015625 C3 14 3 14 1 17 C0.34 16.67 -0.32 16.34 -1 16 C-1.02692484 13.70839681 -1.04636124 11.41670454 -1.0625 9.125 C-1.07410156 7.84882812 -1.08570313 6.57265625 -1.09765625 5.2578125 C-1 2 -1 2 0 0 Z " fill="#1B1A1B" transform="translate(868,697)"/>
<path d="M0 0 C2.1165563 3.17483445 2.22929149 3.66699005 1.9765625 7.23046875 C1.925 8.03291016 1.8734375 8.83535156 1.8203125 9.66210938 C1.72363281 10.91217773 1.72363281 10.91217773 1.625 12.1875 C1.56828125 13.03248047 1.5115625 13.87746094 1.453125 14.74804688 C1.31179176 16.83271217 1.1571675 18.91646866 1 21 C0.34 21 -0.32 21 -1 21 C-3.32750471 14.01748586 -1.84047366 6.95107463 0 0 Z " fill="#EDECED" transform="translate(329,693)"/>
<path d="M0 0 C1.65 0.33 3.3 0.66 5 1 C5.61364554 8.24101736 5.61364554 8.24101736 2.625 11.9375 C0 14 0 14 -2 15 C-1.34 10.05 -0.68 5.1 0 0 Z " fill="#282928" transform="translate(928,701)"/>
<path d="M0 0 C3.46221683 5.19332525 3.72376531 10.29306287 2.55078125 16.30078125 C2.07247586 18.21061057 1.54087449 20.10693928 1 22 C0.67 21.01 0.34 20.02 0 19 C-0.66 18.67 -1.32 18.34 -2 18 C-1.01 18 -0.02 18 1 18 C0.9278125 17.3709375 0.855625 16.741875 0.78125 16.09375 C0.19534084 10.69036555 -0.10062919 5.43397617 0 0 Z " fill="#ACACAB" transform="translate(740,695)"/>
<path d="M0 0 C0.66 0.99 1.32 1.98 2 3 C1.2884375 3.6496875 1.2884375 3.6496875 0.5625 4.3125 C-2.65038768 7.78241869 -2.30750954 12.21053639 -2.5625 16.6875 C-2.60568359 17.38939453 -2.64886719 18.09128906 -2.69335938 18.81445312 C-2.7991736 20.54275206 -2.90006581 22.2713511 -3 24 C-3.33 24 -3.66 24 -4 24 C-4.738041 7.1070615 -4.738041 7.1070615 0 0 Z " fill="#CFCED0" transform="translate(689,538)"/>
<path d="M0 0 C0.66 0.33 1.32 0.66 2 1 C1.60167969 1.42410156 1.20335937 1.84820313 0.79296875 2.28515625 C-2.85862461 6.32767445 -5.12157254 9.88650302 -7 15 C-7.66 14.67 -8.32 14.34 -9 14 C-7.64002446 7.95566426 -4.14348206 4.36505864 0 0 Z " fill="#DBDBDC" transform="translate(695,822)"/>
<path d="M0 0 C0.66 0.99 1.32 1.98 2 3 C1.68289063 3.51046875 1.36578125 4.0209375 1.0390625 4.546875 C-0.33976273 7.80214659 -0.4293573 10.72843132 -0.625 14.25 C-0.69976563 15.51328125 -0.77453125 16.7765625 -0.8515625 18.078125 C-0.90054688 19.04234375 -0.94953125 20.0065625 -1 21 C-1.33 21 -1.66 21 -2 21 C-2.05420701 18.43721301 -2.09377007 15.87558517 -2.125 13.3125 C-2.15013672 12.2306543 -2.15013672 12.2306543 -2.17578125 11.12695312 C-2.21391569 6.95123219 -1.8789919 3.7505862 0 0 Z " fill="#B6B5B7" transform="translate(514,832)"/>
<path d="M0 0 C0.66 0 1.32 0 2 0 C2.33 3.96 2.66 7.92 3 12 C2.01 12.33 1.02 12.66 0 13 C-0.96661363 9.87819599 -0.98988909 7.47916205 -0.5625 4.25 C-0.46066406 3.45078125 -0.35882812 2.6515625 -0.25390625 1.828125 C-0.17011719 1.22484375 -0.08632813 0.6215625 0 0 Z " fill="#070706" transform="translate(807,701)"/>
<path d="M0 0 C0.33 0.99 0.66 1.98 1 3 C-0.2578125 5.04296875 -0.2578125 5.04296875 -2.125 7.1875 C-2.72570312 7.90292969 -3.32640625 8.61835938 -3.9453125 9.35546875 C-6.47481365 11.38003146 -7.84040336 11.33345224 -11 11 C-10.29875 10.484375 -9.5975 9.96875 -8.875 9.4375 C-5.50532643 6.58060284 -2.78843396 3.41128003 0 0 Z " fill="#2D2D2D" transform="translate(804,494)"/>
<path d="M0 0 C0.73734375 -0.01224609 1.4746875 -0.02449219 2.234375 -0.03710938 C4.15770058 -0.04237395 6.08054263 0.06546553 8 0.1875 C8.66 0.8475 9.32 1.5075 10 2.1875 C8.86820313 2.17589844 7.73640625 2.16429687 6.5703125 2.15234375 C5.08854331 2.14296546 3.60677235 2.1338653 2.125 2.125 C1.37863281 2.11662109 0.63226562 2.10824219 -0.13671875 2.09960938 C-4.19845578 1.98061916 -4.19845578 1.98061916 -8 3.1875 C-8.66 2.5275 -9.32 1.8675 -10 1.1875 C-6.84044583 -0.39227708 -3.46536183 0.00302916 0 0 Z " fill="#BDBDBD" transform="translate(540,676.8125)"/>
<path d="M0 0 C2.66735273 2.48952921 4.55746343 4.63408134 6 8 C5.01 8 4.02 8 3 8 C0.75 5.6875 0.75 5.6875 -1 3 C-0.67 2.01 -0.34 1.02 0 0 Z " fill="#222223" transform="translate(514,567)"/>
<path d="M0 0 C0.99 0 1.98 0 3 0 C3.1875 2.875 3.1875 2.875 3 6 C2.01 6.66 1.02 7.32 0 8 C0 5.36 0 2.72 0 0 Z " fill="#161616" transform="translate(320,774)"/>
<path d="M0 0 C-0.33 4.29 -0.66 8.58 -1 13 C-1.33 13 -1.66 13 -2 13 C-2 9.7 -2 6.4 -2 3 C-2.66 3 -3.32 3 -4 3 C-4.33 3.66 -4.66 4.32 -5 5 C-5 4.01 -5 3.02 -5 2 C-2 0 -2 0 0 0 Z " fill="#3D3B3D" transform="translate(389,697)"/>
<path d="M0 0 C0.99 0.33 1.98 0.66 3 1 C2.443125 1.226875 1.88625 1.45375 1.3125 1.6875 C-1.63246684 3.35896766 -3.68156544 5.55276352 -6 8 C-6.66 7.67 -7.32 7.34 -8 7 C-6.74057614 5.80040625 -5.46704714 4.61560557 -4.1875 3.4375 C-3.12595703 2.44556641 -3.12595703 2.44556641 -2.04296875 1.43359375 C-1.36878906 0.96050781 -0.69460938 0.48742187 0 0 Z " fill="#D9D9DA" transform="translate(342,528)"/>
<path d="M0 0 C1.05960938 0.00676758 1.05960938 0.00676758 2.140625 0.01367188 C3.88545275 0.02546125 5.630237 0.04339676 7.375 0.0625 C7.375 0.3925 7.375 0.7225 7.375 1.0625 C6.45976563 1.12308594 5.54453125 1.18367187 4.6015625 1.24609375 C3.41304687 1.32988281 2.22453125 1.41367187 1 1.5 C-0.18335938 1.58121094 -1.36671875 1.66242187 -2.5859375 1.74609375 C-5.54018901 1.87334936 -5.54018901 1.87334936 -7.625 3.0625 C-8.285 2.4025 -8.945 1.7425 -9.625 1.0625 C-6.55966836 -0.47016582 -3.35745728 -0.04026471 0 0 Z " fill="#C5C5C5" transform="translate(961.625,676.9375)"/>
<path d="M0 0 C0.66 0.33 1.32 0.66 2 1 C-0.66666667 3.66666667 -3.33333333 6.33333333 -6 9 C-6.66 8.67 -7.32 8.34 -8 8 C-5.36 5.36 -2.72 2.72 0 0 Z " fill="#E7E7E8" transform="translate(277,529)"/>
<path d="M0 0 C2.4294516 3.6441774 2.16179575 5.71241272 2 10 C1.34 9.67 0.68 9.34 0 9 C-1.28571429 2.57142857 -1.28571429 2.57142857 0 0 Z " fill="#D7D6D7" transform="translate(329,693)"/>
<path d="M0 0 C0.99 0.33 1.98 0.66 3 1 C1.35 2.65 -0.3 4.3 -2 6 C-2 2 -2 2 0 0 Z " fill="#F3F3F3" transform="translate(557,861)"/>
<path d="M0 0 C0.66 0.33 1.32 0.66 2 1 C-1.5 5.875 -1.5 5.875 -6 7 C-4.02 4.69 -2.04 2.38 0 0 Z " fill="#E6E5E6" transform="translate(761,530)"/>
<path d="M0 0 C0.99 0 1.98 0 3 0 C3 1.65 3 3.3 3 5 C2.01 5.33 1.02 5.66 0 6 C0 4.02 0 2.04 0 0 Z " fill="#151516" transform="translate(567,774)"/>
<path d="M0 0 C0.33 1.32 0.66 2.64 1 4 C-0.65 5.32 -2.3 6.64 -4 8 C-4 4.09161134 -2.49432124 2.88405893 0 0 Z " fill="#181819" transform="translate(985,722)"/>
<path d="M0 0 C0.99 0.33 1.98 0.66 3 1 C1.35 2.65 -0.3 4.3 -2 6 C-2 4.68 -2 3.36 -2 2 C-1.34 2 -0.68 2 0 2 C0 1.34 0 0.68 0 0 Z " fill="#F1F1F1" transform="translate(733,722)"/>
<path d="M0 0 C0.99 0 1.98 0 3 0 C3 1.65 3 3.3 3 5 C2.34 5 1.68 5 1 5 C0.67 5.99 0.34 6.98 0 8 C0 5.36 0 2.72 0 0 Z " fill="#101010" transform="translate(445,701)"/>
<path d="M0 0 C2.28062828 3.42094242 2.21925007 4.68187222 2.125 8.6875 C2.10695313 9.68136719 2.08890625 10.67523437 2.0703125 11.69921875 C2.03550781 12.83810547 2.03550781 12.83810547 2 14 C1.67 14 1.34 14 1 14 C0.93941406 13.37351562 0.87882813 12.74703125 0.81640625 12.1015625 C0.73261719 11.28429687 0.64882813 10.46703125 0.5625 9.625 C0.48128906 8.81289063 0.40007813 8.00078125 0.31640625 7.1640625 C0.10909886 4.95727195 0.10909886 4.95727195 -1 3 C-0.67 2.01 -0.34 1.02 0 0 Z " fill="#3B3B3B" transform="translate(683,623)"/>
</svg>
